<svg t="1718290671508" class="icon" viewBox="0 0 1057 1024" version="1.1" xmlns="http://www.w3.org/2000/svg" p-id="9178" width="48" height="48"><path d="M528.471494 1011.54712c-140.185738 0.132126-274.690055-58.201524-373.718529-162.118662C55.592365 745.544352-0.131796 604.731016 0.00033 457.905944a27.151903 27.151903 0 0 1 10.47099-21.569577 260.783789 260.783789 0 0 1 91.53032-41.421517c50.207899-11.79225 125.618841-12.320754 199.378208 52.024632 45.781676 39.96813 99.193631 51.033686 158.650353 32.635134a248.066657 248.066657 0 0 0 77.921337-40.793917 249.520043 249.520043 0 0 1 86.707719-46.145023c48.424197-14.269613 121.22565-17.737922 193.399504 46.475338 40.62876 36.202537 85.452522 47.40022 133.116994 33.163638a180.021741 180.021741 0 0 0 63.585661-34.683088 24.67454 24.67454 0 0 1 27.350092-4.16197 26.689462 26.689462 0 0 1 14.897212 24.212098c0.066063 146.957198-55.592035 287.803566-154.752634 391.588577-99.094537 103.9832-233.532791 162.448977-373.784592 162.316851z m-91.497289-219.230147c18.431584 0 36.664979-1.51945 54.964436-4.624411 21.800798-3.864687 74.188776-15.756031 90.176029-44.55951a13.54292 13.54292 0 0 0-4.78957-18.002174 12.45288 12.45288 0 0 0-17.27548 4.756537c-5.582326 10.074611-30.653243 24.311193-72.272949 31.578126-54.435932 9.413981-133.711561 5.945672-178.337134-34.94734-42.80884-39.175373-85.881932-40.694823-114.520253-35.079466a137.675343 137.675343 0 0 0-52.189789 22.131113 13.54292 13.54292 0 0 0-2.642521 18.365521 12.22166 12.22166 0 0 0 17.506701 3.204057c2.774647-2.080985 68.573419-49.778489 135.164948 11.36284 36.929231 34.088521 93.214927 45.814707 144.248614 45.814707z m364.33758 58.498809a12.816227 12.816227 0 0 0 12.221659-9.645202 13.509888 13.509888 0 0 0-5.483231-14.963275 226.596174 226.596174 0 0 0-68.243104-27.416155c-53.676207-12.287723-105.634776-3.963781-150.227318 24.113004a13.509888 13.509888 0 0 0-6.507207 11.627092 13.212605 13.212605 0 0 0 6.606302 11.660124 12.551975 12.551975 0 0 0 12.981384-0.462441c39.274468-24.67454 83.272442-31.776315 130.804789-21.041074a205.191754 205.191754 0 0 1 61.17436 24.278162 14.533865 14.533865 0 0 0 6.672366 1.849765z m-315.087595-191.021235a189.303596 189.303596 0 0 0 124.264549-45.41833c41.025138-34.418836 91.53032-40.364508 149.963065-17.671859 28.341037 11.263746 54.83231 27.019777 78.648031 46.73959a12.22166 12.22166 0 0 0 17.870048-1.651576 13.774141 13.774141 0 0 0-1.585513-18.728867 316.210666 316.210666 0 0 0-85.386459-50.967623c-66.855781-26.160958-127.402543-18.662804-175.39733 21.503514-47.235062 39.637815-104.974146 49.646363-171.433548 29.662298a312.80842 312.80842 0 0 1-88.557484-43.436438 12.386817 12.386817 0 0 0-17.870048 2.939804 13.774141 13.774141 0 0 0 2.84071 18.662805c1.651576 1.189134 40.62876 30.620212 95.626228 47.301125a247.240869 247.240869 0 0 0 70.951688 11.065557h0.066063z" fill="#1384FD" opacity=".5" p-id="9179"></path><path d="M680.449481 14.094546c39.703878-3.567403 63.024125 1.32126 75.179722 15.888158 6.77146 7.828468 9.546107 18.332489 7.498153 28.473163a25.004855 25.004855 0 0 1-2.64252 7.068744c84.09823 60.711919 138.137784 207.173644 153.827752 254.441738 70.423184 18.266426 107.220289 49.216953 108.871864 50.538214 8.390004 7.266933 11.527998 18.894025 7.927563 29.398046a25.434264 25.434264 0 0 1-23.749657 17.770953l-82.545749 0.66063a31.313874 31.313874 0 0 1-5.417168-0.528504l-1.321261 1.057009c-6.606302 4.624412-13.509888 9.017603-20.644695 12.717132-13.873235 7.134807-25.830643 10.70221-36.499821 10.70221a37.457735 37.457735 0 0 1-35.211592-21.701704c-5.747483-11.726187-4.558349-26.193989 4.261065-53.544081l3.633467-10.867367c-117.493089-126.510692-146.329599-133.975813-182.565168-143.422826a842.997223 842.997223 0 0 1-13.54292-3.567404 26.42521 26.42521 0 0 1-18.56371 25.33517c-9.116697 2.708584-18.79493 4.095908-28.308006 4.228034-25.962769 0-50.769434-10.70221-71.64535-31.479031a157.989723 157.989723 0 0 1-24.740603-32.436945c-9.248823-0.528504-31.512063 1.32126-72.999642 20.149222-10.338863 4.789569-27.548281 12.618038-43.436438 12.618038a31.776315 31.776315 0 0 1-27.581313-13.575952c-14.434771-20.578632 0.462441-44.757699 5.417168-52.685262a176.05796 176.05796 0 0 1 8.918508-12.981384c9.248823-40.826949 30.917495-72.669327 64.345386-94.602251C514.961605-22.834684 653.429704 7.323086 680.449481 14.094546z m-165.421813 62.297432a12.849258 12.849258 0 0 0-12.386817 12.981385c0 7.134807 5.582326 13.014416 12.386817 13.014415a12.783195 12.783195 0 0 0 12.452881-13.014415 12.783195 12.783195 0 0 0-12.452881-12.981385z" fill="#1384FD" p-id="9180"></path></svg>